User Type,Username,Date,Text
[V],HDvideos,2012-10-23T12:56Z,"Video
ID                                       : 1
Format                                   : AVC
Format/Info                              : Advanced Video Codec
Format profile                           : High 10@L4.1
Format settings, CABAC                   : Yes
Format settings, ReFrames                : 16 frames
Muxing mode                              : Header stripping
Codec ID                                 : V_MPEG4/ISO/AVC
Bit rate                                 : 401 Kbps
Width                                    : 720 pixels
Height                                   : 304 pixels
Display aspect ratio                     : 16:9
Original display aspect ratio            : 2.35:1
Frame rate mode                          : Variable
Original frame rate                      : 23.976 fps
Color space                              : YUV
Chroma subsampling                       : 4:2:0
Bit depth                                : 10 bits
Scan type                                : Progressive
Bits/(Pixel*Frame)                       : 0.076
Title                                    : apextream

Language                                 : English
Default                                  : Yes
Forced                                   : No

Audio #1
ID                                       : 2
Format                                   : MPEG Audio
Format version                           : Version 1
Format profile                           : Layer 3
Mode                                     : Joint stereo
Mode extension                           : MS Stereo
Muxing mode                              : Header stripping
Codec ID                                 : A_MPEG/L3
Codec ID/Hint                            : MP3
Duration                                 : 1h 45mn
Bit rate mode                            : Constant
Bit rate                                 : 64.0 Kbps
Channel(s)                               : 2 channels
Sampling rate                            : 48.0 KHz
Compression mode                         : Lossy
Stream size                              : 48.1 MiB (12%)
Title                                    : apextream
Writing library                          : LAME3.98.2
Language                                 : English
Default                                  : No
Forced                                   : No

Audio #2
ID                                       : 3
Format                                   : MPEG Audio
Format version                           : Version 1
Format profile                           : Layer 3
Mode                                     : Joint stereo
Mode extension                           : MS Stereo
Muxing mode                              : Header stripping
Codec ID                                 : A_MPEG/L3
Codec ID/Hint                            : MP3
Duration                                 : 1h 45mn
Bit rate mode                            : Constant
Bit rate                                 : 64.0 Kbps
Channel(s)                               : 2 channels
Sampling rate                            : 48.0 KHz
Compression mode                         : Lossy
Stream size                              : 48.1 MiB (12%)
Title                                    : apextream
Writing library                          : LAME3.98.2
Language                                 : Hindi
Default                                  : Yes
Forced                                   : No "
[V],HDvideos,2012-10-23T13:00Z,"Video Source: ETRG (thanks).
Hindi Audio Source: ICTV (thanks)"
[V],HDvideos,2012-10-23T13:06Z,"Screens:
http://i.imgur.com/B3zAh.png
http://i.imgur.com/LipsH.png
http://i.imgur.com/Ho0Mc.png
http://i.imgur.com/saeUw.png
http://i.imgur.com/GQcWL.png
http://i.imgur.com/OZjty.png
http://i.imgur.com/bQ6ww.png
http://i.imgur.com/HYOzy.png
http://i.imgur.com/1a2Fn.png
http://i.imgur.com/OhKWr.png

Hindi Audio is From CAM"
,jalucian,2012-11-25T21:47Z,"Without ""Vampire Hunter"" in the title, this could easily be confused with Lincoln (2012) which also came out this year. And unlike this film, it's actually a good movie."
